<?xml version="1.0" standalone="no"?>
<!DOCTYPE svg PUBLIC "-//W3C//DTD SVG 20010904//EN"
 "http://www.w3.org/TR/2001/REC-SVG-20010904/DTD/svg10.dtd">
<svg version="1.0" xmlns="http://www.w3.org/2000/svg"
 width="510.000000pt" height="491.000000pt" viewBox="0 0 510.000000 491.000000"
 preserveAspectRatio="xMidYMid meet">

<g transform="translate(0.000000,491.000000) scale(0.100000,-0.100000)"
fill="#000000" stroke="none">
<path d="M580 3905 l0 -475 475 0 475 0 0 475 0 475 -475 0 -475 0 0 -475z
m810 0 l0 -335 -335 0 -335 0 0 335 0 335 335 0 335 0 0 -335z"/>
<path d="M850 3905 l0 -205 205 0 205 0 0 205 0 205 -205 0 -205 0 0 -205z"/>
<path d="M1800 4245 l0 -135 -70 0 -70 0 0 -405 0 -405 70 0 70 0 0 -70 0 -70
65 0 65 0 0 -65 0 -65 -270 0 -270 0 0 65 0 65 70 0 70 0 0 70 0 70 -340 0
-340 0 0 -135 0 -135 70 0 70 0 0 -70 0 -70 -205 0 -205 0 0 -135 0 -135 70 0
70 0 0 -65 0 -65 -70 0 -70 0 0 -70 0 -70 70 0 70 0 0 -65 0 -65 -70 0 -70 0
0 -340 0 -340 70 0 70 0 0 340 0 340 65 0 65 0 0 -70 0 -70 70 0 70 0 0 70 0
70 135 0 135 0 0 -70 0 -70 135 0 135 0 0 70 0 70 200 0 200 0 0 135 0 135 70
0 70 0 0 -135 0 -135 200 0 200 0 0 -70 0 -70 70 0 70 0 0 70 0 70 135 0 135
0 0 -70 0 -70 -70 0 -70 0 0 -65 0 -65 -65 0 -65 0 0 -70 0 -70 -70 0 -70 0 0
-65 0 -65 135 0 135 0 0 -135 0 -135 -65 0 -65 0 0 65 0 65 -135 0 -135 0 0
70 0 70 -135 0 -135 0 0 -70 0 -70 135 0 135 0 0 -65 0 -65 -135 0 -135 0 0
-70 0 -70 135 0 135 0 0 -65 0 -65 -205 0 -205 0 0 -135 0 -135 70 0 70 0 0
-70 0 -70 -135 0 -135 0 0 270 0 270 65 0 65 0 0 70 0 70 -65 0 -65 0 0 65 0
65 65 0 65 0 0 70 0 70 -65 0 -65 0 0 65 0 65 65 0 65 0 0 70 0 70 -65 0 -65
0 0 -70 0 -70 -70 0 -70 0 0 70 0 70 -200 0 -200 0 0 -70 0 -70 -70 0 -70 0 0
70 0 70 -135 0 -135 0 0 -135 0 -135 135 0 135 0 0 -70 0 -70 270 0 270 0 0
-65 0 -65 70 0 70 0 0 -70 0 -70 -70 0 -70 0 0 -270 0 -270 70 0 70 0 0 -65 0
-65 -70 0 -70 0 0 -70 0 -70 70 0 70 0 0 70 0 70 65 0 65 0 0 -70 0 -70 135 0
135 0 0 70 0 70 70 0 70 0 0 -70 0 -70 65 0 65 0 0 70 0 70 70 0 70 0 0 -70 0
-70 200 0 200 0 0 70 0 70 70 0 70 0 0 -70 0 -70 65 0 65 0 0 70 0 70 70 0 70
0 0 -70 0 -70 65 0 65 0 0 70 0 70 70 0 70 0 0 -70 0 -70 270 0 270 0 0 70 0
70 65 0 65 0 0 135 0 135 70 0 70 0 0 65 0 65 -70 0 -70 0 0 70 0 70 -135 0
-135 0 0 65 0 65 70 0 70 0 0 70 0 70 135 0 135 0 0 135 0 135 -70 0 -70 0 0
65 0 65 -65 0 -65 0 0 205 0 205 65 0 65 0 0 65 0 65 -65 0 -65 0 0 205 0 205
65 0 65 0 0 65 0 65 -65 0 -65 0 0 -65 0 -65 -135 0 -135 0 0 -70 0 -70 -270
0 -270 0 0 135 0 135 -70 0 -70 0 0 -135 0 -135 -65 0 -65 0 0 205 0 205 65 0
65 0 0 65 0 65 70 0 70 0 0 -65 0 -65 65 0 65 0 0 -135 0 -135 135 0 135 0 0
65 0 65 70 0 70 0 0 135 0 135 135 0 135 0 0 70 0 70 -340 0 -340 0 0 -70 0
-70 -65 0 -65 0 0 70 0 70 -70 0 -70 0 0 65 0 65 70 0 70 0 0 70 0 70 -70 0
-70 0 0 -70 0 -70 -65 0 -65 0 0 135 0 135 65 0 65 0 0 70 0 70 70 0 70 0 0
135 0 135 -70 0 -70 0 0 -135 0 -135 -65 0 -65 0 0 200 0 200 65 0 65 0 0 70
0 70 -65 0 -65 0 0 -70 0 -70 -135 0 -135 0 0 70 0 70 -135 0 -135 0 0 -70 0
-70 135 0 135 0 0 -65 0 -65 -70 0 -70 0 0 -135 0 -135 -335 0 -335 0 0 -135
0 -135 -70 0 -70 0 0 -135 0 -135 -65 0 -65 0 0 270 0 270 65 0 65 0 0 135 0
135 70 0 70 0 0 -70 0 -70 65 0 65 0 0 135 0 135 70 0 70 0 0 70 0 70 -135 0
-135 0 0 -70 0 -70 -70 0 -70 0 0 70 0 70 -65 0 -65 0 0 -135z m1210 -205 l0
-70 -65 0 -65 0 0 70 0 70 65 0 65 0 0 -70z m140 -270 l0 -70 -70 0 -70 0 0
-200 0 -200 -65 0 -65 0 0 -70 0 -70 135 0 135 0 0 -65 0 -65 -70 0 -70 0 0
-135 0 -135 -65 0 -65 0 0 -205 0 -205 65 0 65 0 0 70 0 70 135 0 135 0 0 -70
0 -70 135 0 135 0 0 70 0 70 205 0 205 0 0 65 0 65 65 0 65 0 0 -135 0 -135
70 0 70 0 0 -65 0 -65 -70 0 -70 0 0 -70 0 -70 -135 0 -135 0 0 -65 0 -65 70
0 70 0 0 -70 0 -70 135 0 135 0 0 -65 0 -65 -70 0 -70 0 0 -70 0 -70 -65 0
-65 0 0 135 0 135 -70 0 -70 0 0 70 0 70 -65 0 -65 0 0 -135 0 -135 -135 0
-135 0 0 65 0 65 65 0 65 0 0 70 0 70 70 0 70 0 0 65 0 65 -135 0 -135 0 0 70
0 70 -70 0 -70 0 0 -70 0 -70 -135 0 -135 0 0 70 0 70 -65 0 -65 0 0 65 0 65
-70 0 -70 0 0 135 0 135 -200 0 -200 0 0 -65 0 -65 -70 0 -70 0 0 65 0 65
-135 0 -135 0 0 -65 0 -65 -65 0 -65 0 0 65 0 65 65 0 65 0 0 70 0 70 -270 0
-270 0 0 65 0 65 -65 0 -65 0 0 -200 0 -200 65 0 65 0 0 65 0 65 135 0 135 0
0 -135 0 -135 -65 0 -65 0 0 -65 0 -65 -70 0 -70 0 0 65 0 65 -135 0 -135 0 0
135 0 135 -65 0 -65 0 0 -65 0 -65 -70 0 -70 0 0 -70 0 -70 -65 0 -65 0 0 70
0 70 65 0 65 0 0 65 0 65 -65 0 -65 0 0 70 0 70 65 0 65 0 0 -70 0 -70 70 0
70 0 0 135 0 135 65 0 65 0 0 70 0 70 -65 0 -65 0 0 65 0 65 135 0 135 0 0
-65 0 -65 65 0 65 0 0 -70 0 -70 405 0 405 0 0 70 0 70 -65 0 -65 0 0 65 0 65
-70 0 -70 0 0 70 0 70 70 0 70 0 0 -70 0 -70 65 0 65 0 0 -65 0 -65 70 0 70 0
0 135 0 135 65 0 65 0 0 65 0 65 -65 0 -65 0 0 70 0 70 65 0 65 0 0 -70 0 -70
70 0 70 0 0 70 0 70 65 0 65 0 0 -70 0 -70 70 0 70 0 0 135 0 135 -70 0 -70 0
0 70 0 70 205 0 205 0 0 -70z m-950 -270 l0 -70 -65 0 -65 0 0 70 0 70 65 0
65 0 0 -70z m1620 -540 l0 -70 -65 0 -65 0 0 70 0 70 65 0 65 0 0 -70z m-1210
-675 l0 -65 -70 0 -70 0 0 65 0 65 70 0 70 0 0 -65z m670 -405 l0 -70 -65 0
-65 0 0 -135 0 -135 65 0 65 0 0 -65 0 -65 -65 0 -65 0 0 -135 0 -135 65 0 65
0 0 -70 0 -70 205 0 205 0 0 -65 0 -65 -205 0 -205 0 0 -135 0 -135 -65 0 -65
0 0 65 0 65 -70 0 -70 0 0 -65 0 -65 -65 0 -65 0 0 65 0 65 65 0 65 0 0 70 0
70 70 0 70 0 0 65 0 65 -70 0 -70 0 0 70 0 70 -65 0 -65 0 0 -135 0 -135 -205
0 -205 0 0 -70 0 -70 -65 0 -65 0 0 70 0 70 -135 0 -135 0 0 65 0 65 135 0
135 0 0 70 0 70 65 0 65 0 0 65 0 65 135 0 135 0 0 -65 0 -65 70 0 70 0 0 200
0 200 65 0 65 0 0 70 0 70 -135 0 -135 0 0 135 0 135 270 0 270 0 0 -70z
m-1750 -135 l0 -65 -135 0 -135 0 0 65 0 65 135 0 135 0 0 -65z m270 -135 l0
-70 -70 0 -70 0 0 70 0 70 70 0 70 0 0 -70z m2020 -270 l0 -200 -200 0 -200 0
0 200 0 200 200 0 200 0 0 -200z m140 -405 l0 -65 -70 0 -70 0 0 65 0 65 70 0
70 0 0 -65z m270 0 l0 -65 -70 0 -70 0 0 65 0 65 70 0 70 0 0 -65z m-2030
-270 l0 -65 -65 0 -65 0 0 65 0 65 65 0 65 0 0 -65z m1350 0 l0 -65 -65 0 -65
0 0 65 0 65 65 0 65 0 0 -65z m410 0 l0 -65 -70 0 -70 0 0 65 0 65 70 0 70 0
0 -65z m270 0 l0 -65 -70 0 -70 0 0 65 0 65 70 0 70 0 0 -65z"/>
<path d="M2610 3365 l0 -65 -70 0 -70 0 0 -70 0 -70 70 0 70 0 0 -65 0 -65
135 0 135 0 0 65 0 65 -70 0 -70 0 0 135 0 135 -65 0 -65 0 0 -65z"/>
<path d="M2470 2825 l0 -65 70 0 70 0 0 65 0 65 -70 0 -70 0 0 -65z"/>
<path d="M2740 2825 l0 -65 70 0 70 0 0 65 0 65 -70 0 -70 0 0 -65z"/>
<path d="M1390 2420 l0 -70 70 0 70 0 0 70 0 70 -70 0 -70 0 0 -70z"/>
<path d="M3150 2285 l0 -65 65 0 65 0 0 65 0 65 -65 0 -65 0 0 -65z"/>
<path d="M3550 2285 l0 -65 135 0 135 0 0 65 0 65 -135 0 -135 0 0 -65z"/>
<path d="M3010 1475 l0 -65 70 0 70 0 0 65 0 65 -70 0 -70 0 0 -65z"/>
<path d="M2470 1070 l0 -70 70 0 70 0 0 70 0 70 -70 0 -70 0 0 -70z"/>
<path d="M3550 1340 l0 -70 70 0 70 0 0 70 0 70 -70 0 -70 0 0 -70z"/>
<path d="M3550 3905 l0 -475 475 0 475 0 0 475 0 475 -475 0 -475 0 0 -475z
m810 0 l0 -335 -335 0 -335 0 0 335 0 335 335 0 335 0 0 -335z"/>
<path d="M3820 3905 l0 -205 205 0 205 0 0 205 0 205 -205 0 -205 0 0 -205z"/>
<path d="M2470 4040 l0 -70 70 0 70 0 0 70 0 70 -70 0 -70 0 0 -70z"/>
<path d="M580 3230 l0 -70 70 0 70 0 0 70 0 70 -70 0 -70 0 0 -70z"/>
<path d="M4360 3095 l0 -65 70 0 70 0 0 65 0 65 -70 0 -70 0 0 -65z"/>
<path d="M4360 2555 l0 -65 70 0 70 0 0 65 0 65 -70 0 -70 0 0 -65z"/>
<path d="M2070 1945 l0 -135 65 0 65 0 0 70 0 70 70 0 70 0 0 65 0 65 -135 0
-135 0 0 -135z"/>
<path d="M4360 2015 l0 -65 70 0 70 0 0 65 0 65 -70 0 -70 0 0 -65z"/>
<path d="M580 935 l0 -475 475 0 475 0 0 475 0 475 -475 0 -475 0 0 -475z
m810 0 l0 -335 -335 0 -335 0 0 335 0 335 335 0 335 0 0 -335z"/>
<path d="M850 935 l0 -205 205 0 205 0 0 205 0 205 -205 0 -205 0 0 -205z"/>
</g>
</svg>
